<?xml version="1.0" standalone="no"?><!DOCTYPE svg PUBLIC "-//W3C//DTD SVG 1.1//EN" "http://www.w3.org/Graphics/SVG/1.1/DTD/svg11.dtd"><svg class="icon" height="512" viewBox="0 0 1024 1024" version="1.1" xmlns="http://www.w3.org/2000/svg"><path d="M512.096 96C247.04 96 32.192 280.096 32.192 507.168c0 77.312 24.896 149.664 68.224 211.456C100.736 718.72 32 928 32 928s204.768-83.648 204.992-83.872C314.88 890.912 409.664 928 512 928c265.056 0 480-193.728 480-420.832C992 280.096 777.152 96 512.096 96M512 864c-87.744 0-211.136-58.24-262.56-96.8-0.16 0.192-107.104 39.616-107.104 39.616s37.76-105.408 37.504-105.504C137.504 660.608 96 576.448 96 512 96 322.752 284.768 160 512 160s416 162.752 416 352-188.768 352-416 352z" /></svg>